<svg viewBox="0 0 1369 750" fill="none" xmlns="http://www.w3.org/2000/svg" preserveAspectRatio="none">
<path d="M1336.65 742.902C1206.05 742.902 1206.05 747.332 1075.51 747.332C944.902 747.332 944.902 750 814.364 750C683.826 750 683.759 719.473 553.22 719.473C422.615 719.473 422.615 713.869 292.009 713.869C161.404 713.869 161.404 714.136 30.7981 714.136C18.4654 714.136 0 714.776 0 695.83C0 535.508 12.7371 535.508 12.7371 375.24C12.7371 214.972 0 214.919 0 54.5969C0 35.6507 18.4654 21.4011 30.7981 21.4011C161.404 21.4011 161.404 34.4766 291.942 34.4766C422.48 34.4766 422.547 0 553.086 0C683.624 0 683.691 17.1316 814.229 17.1316C944.768 17.1316 944.835 12.275 1075.44 12.275C1206.05 12.275 1206.05 1.9213 1336.65 1.9213C1348.98 1.9213 1368.12 35.5974 1368.12 54.5969C1368.12 214.919 1346.09 214.919 1346.09 375.187C1346.09 535.455 1369 535.508 1369 695.777C1369 714.723 1349.05 742.849 1336.72 742.849L1336.65 742.902Z" fill="white"/>
</svg>