<svg width="604" height="592" viewBox="0 0 604 592" fill="none" xmlns="http://www.w3.org/2000/svg">
<path d="M551.462 318.997H551.366C545.005 316.395 537.585 314.083 529.201 312.156C537.489 310.903 545.005 309.265 551.366 307.145C554.449 306.374 582.3 298.57 596.273 267.736C601.67 256.462 604.079 244.129 603.501 231.796C603.501 229.387 603.211 226.978 602.922 224.569V224.858C603.019 224.28 602.922 223.702 602.826 223.027C601.67 212.139 593.864 197.879 591.744 194.217C591.455 193.639 591.262 193.35 591.262 193.35V193.735C584.42 183.04 575.072 173.983 563.797 167.72C534.02 150.183 506.747 158.855 503.664 159.915H503.567C498.845 161.264 493.738 163.095 488.438 165.311C492.003 161.071 495.087 156.831 497.592 152.881C499.52 150.279 515.71 126.672 506.651 93.9117C502.315 76.9532 492.389 61.9219 478.126 50.9374H478.415C478.415 50.9374 477.837 50.7447 477.548 50.552C468.2 44.0962 460.298 40.5311 454.516 38.5076C448.252 36.3878 444.494 36.0987 444.494 36.0987H444.687C435.917 34.5571 426.859 34.3644 417.993 35.7133C386.288 40.0493 370.773 60.7656 366.918 66.6433C362.967 72.2318 359.112 79.073 355.45 86.7814C355.45 79.5548 355.161 73.0027 354.294 67.125C354.005 63.9453 351.114 35.617 323.071 15.7679C307.652 4.20526 288.571 -1.28697 269.394 0.254709C268.816 0.254709 268.237 0.254709 267.659 0.447419H267.177C247.904 2.75994 230.365 11.8173 218.03 25.9815C194.998 51.2265 198.756 79.7475 199.335 82.9272V83.1199C200.009 89.6721 201.455 96.9951 203.575 104.896C198.082 98.344 192.589 92.6591 187.385 88.2268C185.072 86.0106 163.871 66.6433 130.046 69.6303C116.94 70.5938 104.509 74.8334 93.7155 81.771L94.1974 81.2892C93.6192 81.6746 93.1373 82.06 92.5591 82.5418C79.2604 92.1773 72.4183 101.524 69.5273 106.341C68.2745 108.365 67.6963 109.618 67.6963 109.618L68.0817 109.232C61.9142 120.698 58.6377 133.417 58.9268 146.521C58.9268 180.728 80.8986 199.613 83.4042 201.637H83.5969C87.2589 205.105 91.4027 208.574 96.2211 211.947C90.2463 210.983 84.657 210.308 79.5495 210.212C76.273 209.923 47.3627 207.996 23.5599 231.507C9.68292 244.322 1.29893 261.955 0.0461487 280.84V283.346C-0.628425 302.617 6.11731 321.309 18.6451 335.763C40.5206 362.26 69.3345 363.513 72.5146 363.609H72.7074C79.3568 364.187 86.8734 364.091 95.0647 363.416C87.6444 367.56 81.0914 371.799 75.8875 376.135C73.2856 377.966 50.2537 395.31 48.4227 429.034C47.1699 444.74 51.0247 460.35 58.7341 473.646L58.445 473.357C58.8304 474.128 59.4086 474.803 59.7941 475.574C59.9868 475.959 60.1796 476.248 60.4687 476.633C61.8178 478.657 63.167 480.584 64.6125 482.415C69.4309 488.485 74.6347 493.014 77.9112 495.615C79.935 497.157 81.2841 498.121 81.2841 498.121L80.8023 497.639C90.8245 504.769 102.196 509.683 114.338 511.61C145.465 517.295 166.955 502.842 172.737 498.313C176.688 495.519 180.736 492.05 184.976 488.003C183.819 491.665 182.952 495.134 182.277 498.41C181.41 501.493 174.568 529.147 194.42 556.994C200.78 566.34 209.164 574.048 218.801 579.926H218.319C218.319 579.926 220.343 581.179 223.619 582.817C231.039 586.574 245.88 592.356 265.828 591.2C266.503 591.2 267.081 591.2 267.852 591.2H267.466C278.067 590.043 288.282 587.056 297.34 581.949C327.6 565.955 333.864 538.012 334.442 534.832V534.446C335.984 528.762 336.948 522.209 337.719 515.079C340.995 524.426 344.657 532.712 348.512 539.457C349.957 542.348 363.256 567.593 396.406 576.072C408.645 579.444 421.366 579.637 433.604 577.035H433.412C433.412 577.035 436.688 576.746 441.796 575.205C448.445 573.181 458.082 569.038 467.622 560.751C470.031 558.728 472.441 556.415 474.753 553.814C474.753 553.814 474.946 553.621 474.946 553.525C476.006 552.368 476.97 551.212 478.03 549.863L477.644 550.152C482.945 543.504 487.185 536.181 489.979 528.087C501.833 496.001 487.57 470.852 485.836 468.154V467.962C483.234 463.144 479.957 457.941 476.199 452.641C483.523 456.688 490.365 459.868 496.629 462.18C499.616 463.433 526.503 474.128 556.666 459.193C567.074 454.279 575.939 447.245 583.071 438.67C585.191 436.357 587.118 433.948 588.853 431.443C590.78 428.552 592.418 425.565 593.96 422.386C594.346 421.518 594.924 420.844 595.213 419.977H595.309L595.791 418.628L596.369 417.472H596.273C596.562 416.508 596.755 415.641 597.044 414.774C598.2 411.112 598.971 407.354 599.453 403.596C599.742 401.573 599.839 399.55 599.935 397.526C600.995 385.385 599.26 373.148 594.442 361.682C581.529 329.21 552.908 319.382 551.655 318.9L551.462 318.997Z" fill="white"/>
</svg>
