<svg width="206" height="175" viewBox="0 0 206 175" fill="none" xmlns="http://www.w3.org/2000/svg">
<path d="M205.335 166.393C206.622 164.127 205.64 161.219 203.203 160.204C194.265 156.518 175.951 146.509 178.557 127.03C181.841 102.479 176.797 71.7733 168.706 54.6957C168.029 53.2416 166.573 52.3285 164.949 52.2609C160.378 52.058 151.17 53.3769 147.074 66.0582C141.454 83.3386 156.079 113.706 159.363 122.127C159.837 123.276 160.344 124.46 160.886 125.644C162.714 129.533 158.313 133.388 154.657 131.156C138.306 121.247 113.356 104.779 111.054 95.2422C107.669 81.1744 137.087 35.8935 103.133 1.265C102.117 0.216673 100.627 -0.189099 99.1717 0.0814364C91.0808 1.6032 67.3836 11.4777 94.6016 75.3241C94.737 75.6284 94.8385 75.9327 94.8724 76.2371C95.3463 78.841 97.1405 90.7107 89.4559 77.3192C80.891 62.3722 53.3345 -2.28576 37.6605 1.70463C21.9526 5.69503 38.6422 50.9082 82.9899 81.4787C82.9899 81.4787 101.812 97.8123 41.2827 56.3189C-19.1791 14.8594 -18.6036 75.3579 79.1306 95.7494C79.2999 95.7833 79.503 95.8171 79.7061 95.8171C80.7556 95.9185 84.5133 96.2905 85.0549 97.305C85.6982 98.4548 68.2638 95.2084 58.6494 99.5708C50.5585 103.257 41.9937 115.093 41.6551 115.532C38.1344 120.098 32.5486 139.238 51.7434 136.634C73.0709 133.726 80.3832 112.692 92.2318 109.445C101.575 106.909 124.494 117.629 137.9 127.842C141.996 130.953 138.204 137.344 133.499 135.281C133.363 135.214 133.194 135.146 133.059 135.079C118.096 128.417 74.3235 156.485 87.4924 169.504C100.289 182.118 128.522 172.548 150.392 145.798C151.61 144.277 153.675 143.736 155.47 144.48C163.628 147.861 186.141 157.668 198.734 167.712C200.833 169.369 203.88 168.76 205.2 166.427V166.359L205.335 166.393Z" fill="#7F4E9F"/>
</svg>
