<svg width="145" height="129" viewBox="0 0 145 129" fill="none" xmlns="http://www.w3.org/2000/svg">
<path d="M25.9894 101.687C41.5493 102.265 79.9211 145.834 125.681 120.768C127.043 120.019 127.928 118.591 128.065 117.026C128.848 108.217 125.477 80.8384 51.4231 90.4635C51.0826 90.4976 50.7422 90.5316 50.3676 90.4635C47.5417 90.1915 34.7057 88.5929 50.8443 84.5456C68.8215 80.0221 143.829 70.3289 144.237 52.9151C144.646 35.5354 92.9954 39.6507 48.4269 76.655C48.4269 76.655 26.0235 91.3818 86.5944 40.8411C147.097 -9.6316 84.2452 -26.6372 34.7738 68.5603C34.6716 68.7303 34.6035 68.9344 34.5354 69.1045C34.1268 70.1588 32.6287 73.9341 31.4371 74.2402C30.0411 74.5803 38.485 57.4726 36.7485 46.2829C35.2845 36.8618 25.4787 24.5497 25.1382 24.0736C21.427 19.1079 3.21147 7.78218 0.351461 28.393C-2.84903 51.2826 16.8646 64.9551 16.7625 78.1515C16.7284 83.3212 12.2682 91.0417 6.03743 98.8303L12.166 107.095C17.6818 103.694 22.5506 101.551 25.9894 101.687Z" fill="#7F4E9F"/>
</svg>
