<svg width="312" height="300" viewBox="0 0 312 300" fill="none" xmlns="http://www.w3.org/2000/svg">
<mask id="mask0_2313_3543" style="mask-type:alpha" maskUnits="userSpaceOnUse" x="0" y="0" width="312" height="300">
<rect width="312" height="300" fill="white"/>
</mask>
<g mask="url(#mask0_2313_3543)">
<path d="M154.216 125.63C156.04 127.104 157.332 127.104 158.054 125.63C158.51 118.033 160.106 109.074 160.6 101.439C161.549 86.3569 160.03 48.2176 170.251 38.0497C191.338 16.9956 227.244 40.6956 212.464 70.6325C205.853 84.0512 188.982 104.463 179.863 117.806C180.699 121.586 179.408 125.177 174.734 124.345C173.442 127.369 175.836 128.465 178.572 126.953C177.736 123.211 179.901 121.019 184.993 120.414C196.24 108.772 211.514 89.8722 223.407 80.498C232.336 73.4674 246.508 71.5775 255.931 78.7593C272.194 91.1574 270.18 118.033 251.22 125.895C235.186 132.585 205.511 138.142 187.539 142.64C187.653 146.382 181.421 146.835 179.863 143.963C177.698 145.399 177.508 146.911 179.218 148.536C177.318 154.887 176.672 160.783 177.28 166.189C179.18 162.824 183.473 165.168 182.409 168.797C186.627 167.247 191.946 170.724 192.668 175.336C205.853 184.672 225.345 196.503 236.667 206.974C253.917 222.887 243.849 253.353 219.569 253.807C218.277 255.999 215.808 255.924 214.44 253.807C211.514 251.236 200.191 249.46 197.418 243.034C190.616 227.31 183.055 211.85 175.988 196.239L173.024 195.785L166.527 179.002C168.997 188.225 171.428 197.184 172.15 206.709C174.886 217.066 181.497 237.289 182.409 246.587C186.057 283.819 132.749 288.582 130.165 251.425C128.873 232.904 146.845 197.902 149.087 177.944C147.605 176.81 145.895 176.81 143.957 177.944C133.546 198.356 125.605 221.678 115.574 242.505C93.3848 272.139 51.3613 238.158 72.1451 210.3C78.6424 201.568 110.065 183.085 120.894 175.336C121.274 172.992 122.984 171.707 126.023 171.405C124.731 168.381 127.695 166.718 129.861 168.797C130.735 165.47 128.645 164.941 126.023 166.189C126.137 170.346 121.806 170.384 118.348 170.12C105.05 176.47 84.3418 188.036 71.6131 192.383C63.406 195.18 57.7826 196.39 49.5755 192.572C26.664 181.951 29.9696 147.024 54.211 141.922C70.8152 138.406 99.5781 146.722 118.348 146.571C124.161 147.629 130.887 147.969 126.023 142.64C104.1 136.894 82.062 131.527 60.2524 125.441C32.4394 109.263 48.2457 65.9076 80.9601 75.5464C88.3693 77.7387 122.148 115.046 129.899 123.06C132.635 123.173 134.496 124.043 135.484 125.63C134.382 123.211 134.078 121.888 133.736 119.129C124.465 105.71 106.873 84.089 100.148 70.3679C81.3781 31.964 145.857 6.86545 150.379 62.2789C152.088 83.1818 152.81 104.652 154.254 125.668L154.216 125.63Z" fill="white"/>
<path d="M191.717 169.59C188.259 171.367 183.738 170.762 182.75 165.659C178.988 166.188 175.378 164.828 176.328 160.443C172.453 155.453 174.998 146.608 182.75 147.364L183.548 145.663C185.105 147.705 188.221 146.911 190.463 146.079C207.257 146.646 224.697 141.581 241.111 140.863C252.282 140.372 260.603 140.145 268.468 149.557C282.603 166.453 272.116 194.046 250.078 194.575C239.136 194.84 203.609 175.562 191.755 169.628L191.717 169.59Z" fill="white"/>
<path d="M291.381 143.963C291.343 140.939 291.609 137.802 291.381 134.815L290.089 128.276C288.569 119.658 286.328 110.435 283.668 102.119C282.262 100.192 281.616 97.8858 281.122 95.5801C277.095 86.9619 272.193 78.6839 267.026 70.7461L259.351 60.2757C258.933 59.8221 258.477 59.4063 258.059 58.9528C256.349 55.5886 253.651 52.8293 250.383 51.0905C243.962 45.1561 236.895 39.2594 229.866 34.081L213.223 24.9336C210.298 23.6106 207.182 22.2877 204.256 21.0025L196.581 18.3944C191.11 17.0714 185.372 15.635 179.939 14.4633L173.518 13.1403C173.1 13.1403 172.644 13.1403 172.226 13.1403C161.663 11.8551 150.606 11.4015 140.195 13.1403C132.786 13.7829 123.287 16.58 115.84 18.3566L105.581 22.2877C105.201 22.4011 104.707 22.1743 104.289 22.2877C100.718 24.6312 96.88 26.37 92.7385 27.5039C92.2445 27.8063 91.9026 28.5623 91.4466 28.8269C89.0529 29.6207 86.7351 30.7546 85.0253 32.758C82.3276 34.459 79.8959 36.3111 77.3501 37.9743C73.8165 41.414 69.9789 44.5513 65.7994 47.1217C61.3159 51.204 58.2762 54.3791 54.2486 58.8772L50.411 64.0934C49.9551 64.5092 49.5371 64.9628 49.1192 65.4164C48.2833 67.4954 46.9914 69.2719 45.2816 70.6327C41.254 76.0379 39.2022 78.9863 36.3145 85.0341C33.9588 88.6628 32.135 92.5939 31.1851 96.7896C24.6118 112.854 21.8381 123.514 20.9262 141.241C19.6723 147.251 19.7103 153.526 20.9262 159.536C21.0022 161.691 20.7742 163.921 20.9262 166.075L22.2181 172.615C24.0799 187.318 26.2456 197.751 33.7688 210.527L40.1901 222.283C41.102 223.606 41.558 224.551 42.7359 226.214C47.3714 233.547 52.5008 240.54 58.1242 247.154C61.7718 250.821 64.0136 253.278 68.3831 256.302L74.8044 261.518C82.2896 267.037 86.4691 270.703 95.3222 274.596L117.094 283.744C117.854 283.895 118.842 283.593 119.64 283.744L127.315 286.352C128.075 286.503 129.063 286.239 129.86 286.352L136.282 287.675C136.7 287.675 137.156 287.675 137.574 287.675L151.67 288.998C154.672 288.998 157.635 288.998 160.637 288.998L174.734 287.675C175.152 287.675 175.608 287.713 176.026 287.675L182.447 286.352C186.664 285.672 189.894 284.689 193.998 283.744L201.673 281.136C202.699 280.871 204.332 280.229 205.51 279.813C209.196 277.734 212.958 275.693 217.061 274.596C217.859 274.218 218.847 273.727 219.607 273.273C222.153 270.817 225.382 269.38 228.574 268.057C229.866 267.226 231.234 266.394 232.411 265.449C233.779 263.673 235.527 262.35 237.541 261.518C237.997 261.102 238.415 260.649 238.833 260.195L243.962 256.264C256.957 243.979 265.202 233.509 274.701 218.351L279.83 209.204C281.464 204.971 283.554 199.15 284.96 194.803L287.505 188.263C288.721 179.494 290.317 170.914 291.343 162.106C292.445 156.059 292.521 149.822 291.343 143.812L291.381 143.963Z" fill="#2D8D41"/>
<path d="M273.751 152.77C267.291 142.413 257.109 141.128 257.109 141.128C240.162 137.574 202.584 145.172 187.044 148.612C185.638 148.914 184.308 147.969 184.08 146.533C184.004 146.004 183.89 145.512 183.776 144.983C183.434 143.547 184.46 142.11 185.904 141.921C200.343 140.069 240.808 134.21 256.197 124.647C256.197 124.647 265.392 119.96 268.051 107.978C269.647 101.401 268.811 94.3701 265.62 88.36C265.62 88.36 265.62 88.3222 265.582 88.2844C265.582 88.2844 265.582 88.2466 265.582 88.2088C262.276 82.2366 256.881 77.8141 250.573 75.7351C239.212 71.7284 230.435 77.1715 230.435 77.1715C213.983 85.6763 186.93 118.826 178.343 129.712C177.469 130.846 175.873 130.96 174.771 130.015C174.619 129.901 174.505 129.788 174.353 129.674C173.252 128.767 173.062 127.104 174.011 125.97C183.51 115.084 210.488 83.1438 215.959 65.4538C215.959 65.4538 219.835 55.7394 214.135 44.9289C211.095 38.8811 205.928 34.194 199.659 31.8126C199.659 31.8126 199.621 31.8126 199.583 31.8126C199.583 31.8126 199.545 31.8126 199.507 31.8126C193.161 29.5447 186.246 29.8471 180.129 32.5308C168.996 37.1423 165.918 47.1591 165.918 47.1591C159.155 64.2442 159.991 106.05 160.523 120.867C160.561 122.341 159.421 123.551 157.977 123.475C157.635 123.475 157.331 123.475 156.989 123.475C156.799 123.475 156.609 123.475 156.381 123.475C154.938 123.513 153.76 122.304 153.836 120.829C154.444 105.937 155.393 64.282 148.706 47.2346C148.706 47.2346 145.667 37.1801 134.534 32.5308C128.454 29.8093 121.539 29.5069 115.194 31.7748C115.194 31.7748 115.156 31.7748 115.118 31.7748C115.118 31.7748 115.08 31.7748 115.042 31.7748C108.735 34.1562 103.567 38.8433 100.489 44.8533C94.752 55.626 98.5896 65.3782 98.5896 65.3782C103.985 82.9548 130.544 114.744 140.157 125.857C141.107 126.953 140.917 128.654 139.777 129.561C139.739 129.561 139.701 129.637 139.663 129.674C138.599 130.544 137.003 130.43 136.13 129.334C127.011 117.881 100.565 85.8275 84.4171 77.5495C84.4171 77.5495 75.6401 72.0686 64.2793 76.1131C57.972 78.1921 52.5766 82.6524 49.2709 88.6246C49.2709 88.6246 49.2709 88.6624 49.2709 88.7002C49.2709 88.7002 49.2709 88.738 49.2329 88.7758C46.0413 94.8237 45.2054 101.854 46.8392 108.431C49.5369 120.414 58.7319 125.101 58.7319 125.101C73.8163 134.399 112.8 140.107 128.036 142.073C129.518 142.262 130.468 143.736 130.126 145.21C130.012 145.777 129.898 146.344 129.784 146.911C129.556 148.347 128.226 149.33 126.859 149.028C112.838 146.193 72.2205 138.633 54.5144 142.753C54.5144 142.753 44.3315 144.227 38.1381 154.735C34.5665 160.443 33.2367 167.398 34.4145 174.164V174.24V174.315C35.7064 181.043 39.468 186.978 44.8254 190.985C54.3624 198.469 64.3933 196.087 64.3933 196.087C82.1374 193.366 116.676 171.669 129.1 163.58C130.316 162.786 131.912 163.278 132.596 164.563C132.824 164.979 133.052 165.395 133.28 165.773C134.002 167.058 133.622 168.683 132.33 169.363C119.259 176.47 83.8852 196.428 72.8664 210.829C72.8664 210.829 65.9131 218.54 67.585 230.711C68.3449 237.44 71.6125 243.714 76.666 248.175C76.666 248.175 76.704 248.212 76.742 248.25C76.742 248.25 76.78 248.288 76.818 248.326C81.9854 252.71 88.5587 254.903 95.208 254.563C107.215 254.185 113.522 245.907 113.522 245.907C125.567 232.412 138.903 193.63 143.577 179.191C144.033 177.793 145.553 177.112 146.882 177.641C147.908 178.057 148.972 178.397 150.074 178.7C151.594 179.078 152.43 180.741 151.822 182.177C145.932 196.012 130.392 234.189 130.582 252.484C130.582 252.484 129.86 262.954 138.561 271.421C143.273 276.184 149.618 279.019 156.343 279.283C156.343 279.283 156.381 279.283 156.419 279.283C156.419 279.283 156.457 279.283 156.495 279.283C163.221 279.397 169.718 276.94 174.695 272.442C183.89 264.504 183.738 254.033 183.738 254.033C184.992 234.945 170.364 193.139 165.842 180.779C165.348 179.456 166.032 178.057 167.286 177.528C167.4 177.49 167.514 177.452 167.628 177.377C168.996 176.81 170.554 177.49 171.01 178.927C175.341 192.95 188.336 232.79 200.343 246.587C200.343 246.587 206.536 254.978 218.543 255.508C225.154 255.961 231.765 253.844 237.009 249.535C237.009 249.535 237.047 249.535 237.085 249.497C237.085 249.497 237.123 249.497 237.161 249.46C242.29 245.037 245.634 238.838 246.508 232.11C248.331 219.976 241.492 212.152 241.492 212.152C230.397 197.221 193.769 176.092 181.649 169.326C180.395 168.607 180.015 167.02 180.737 165.773C180.813 165.659 180.889 165.508 180.965 165.395C181.687 164.147 183.206 163.694 184.422 164.45C197.949 172.803 231.309 192.421 248.521 194.651C248.521 194.651 258.59 196.806 267.937 189.132C273.219 185.012 276.828 178.964 277.968 172.198C277.968 172.198 277.968 172.161 277.968 172.123C277.968 172.123 277.968 172.085 277.968 172.047C278.994 165.281 277.474 158.364 273.789 152.732L273.751 152.77Z" fill="#E0E255"/>
</g>
</svg>
