<svg width="312" height="300" viewBox="0 0 312 300" fill="none" xmlns="http://www.w3.org/2000/svg">
<mask id="mask0_2313_3546" style="mask-type:alpha" maskUnits="userSpaceOnUse" x="0" y="0" width="312" height="300">
<rect width="312" height="300" fill="white"/>
</mask>
<g mask="url(#mask0_2313_3546)">
<path d="M112.421 257.718L95.6813 176.91C108.248 158.81 125.009 146.156 145.869 141.375C149.018 140.652 159.665 138.665 162.024 139.435C168.196 141.475 179.181 166.281 180.898 173.311C183.025 181.967 184.168 205.944 180.661 213.875C178.779 218.125 166.998 221.041 162.476 223.43C144.879 232.618 127.654 244.68 112.397 257.741L112.421 257.718Z" fill="#E0E255"/>
<path d="M47.9293 113.762C57.864 84.5853 76.2742 57.6635 99.7532 38.3551C112.628 58.6703 118.404 83.8476 120.765 108.175C121.246 113.051 123.115 136.112 121.205 138.845C119.672 141.037 107.995 147.781 104.158 151.395C99.4306 155.847 95.4876 161.431 91.2512 166.355C80.472 145.984 67.3168 126.213 47.906 113.737L47.9293 113.762Z" fill="#E0E255"/>
<path d="M277.426 119.234C275.403 150.214 271.493 179.886 256.034 207.908C233.677 202.321 210.253 205.918 188.005 212.101C189.209 204.75 190.31 196 190.046 188.628C189.886 184.292 187.151 174.247 187.714 171.473C188.534 167.335 212.858 148.774 217.797 145.29C234.975 133.178 256.813 120.558 277.426 119.234Z" fill="#E0E255"/>
<path d="M169.925 71.5509C174.943 69.4894 191.512 64.1687 195.662 67.0379C200.072 70.0834 208.56 92.2388 210.232 98.3775C211.903 104.516 216.988 134.365 214.572 138.743L184.787 163.01C182.251 156.003 171.932 135.524 166.101 132.508C159.418 129.033 139.09 137.006 131.704 138.587C130.058 138.922 130.145 140.056 129.496 137.582C130.761 131.436 126.279 103.169 127.915 99.8983C131.113 93.4741 162.277 74.6877 169.901 71.5742L169.925 71.5509Z" fill="#E0E255"/>
<path d="M184.085 13.4822C192.034 9.1273 216.291 -0.676465 223.455 5.24397C231.371 11.7648 247.504 52.1034 241.647 60.5645C238.002 65.82 216.97 73.9891 213.527 83.0287L199.572 54.4751L168.935 63.6039C172.809 53.0373 165.607 37.8031 166.143 28.6512C166.423 24.0395 179.781 15.8061 184.085 13.4822Z" fill="#E0E255"/>
<path d="M221.227 132.617C222.693 118.055 218.265 104.228 215.717 90.3143C228.291 76.0412 244.545 65.8743 261.756 59.1534C265.416 76.9752 265.902 95.5429 263.435 113.853C257.691 116.879 251.521 118.015 245.616 120.772C238.833 123.935 231.057 129.763 224.526 132.548C223.186 133.109 222.805 133.796 221.275 132.618L221.227 132.617Z" fill="#E0E255"/>
<path d="M127.458 91.8227C125.566 91.5006 125.805 90.7619 125.315 89.3995C122.914 82.7332 121.829 73.0508 119.513 65.93C117.483 59.7081 114.102 54.4319 112.41 48.1722C124.095 33.848 137.982 21.5639 153.518 12.073C157.928 21.6157 166.496 58.1875 162.096 67.0056C160.665 69.8497 130.213 84.0857 127.458 91.8227Z" fill="#E0E255"/>
<path d="M29.7425 115.232C29.7425 115.232 29.9086 115.309 30.0034 115.36C78.8329 137.945 97.2044 192.068 102.69 244.164C103.136 248.605 103.083 271.56 104.141 272.386C106.07 273.888 105.9 272.319 106.736 271.719C111.483 268.229 116.14 262.908 120.944 259.131C163.79 225.323 218.33 198.824 270.521 220.019C270.593 220.045 270.712 220.073 270.783 220.099C241.307 259.126 194.663 294.456 146.028 294.592C135.728 294.617 126.414 293.058 116.812 290.65C116.812 290.65 116.764 290.648 116.692 290.622C114.925 290.183 113.182 289.721 111.415 289.234C107.456 288.056 103.455 286.635 99.488 284.902C95.9478 283.375 92.6289 281.686 89.4105 279.856C80.8222 274.903 73.371 268.926 66.999 262.259C30.2595 227.119 20.7419 166.527 29.7425 115.232Z" fill="#2D8D41"/>
<path d="M111.439 289.21C113.229 289.722 114.997 290.161 116.716 290.598C114.947 290.207 113.181 289.721 111.439 289.21Z" fill="#64B546"/>
</g>
</svg>
