<svg width="312" height="300" viewBox="0 0 312 300" fill="none" xmlns="http://www.w3.org/2000/svg">
<mask id="mask0_2313_3544" style="mask-type:alpha" maskUnits="userSpaceOnUse" x="0" y="0" width="312" height="300">
<rect width="312" height="300" fill="white"/>
</mask>
<g mask="url(#mask0_2313_3544)">
<path d="M182.889 33.0681C183.947 33.9216 184.214 36.3505 186.118 37.7628C193.436 43.2118 204.789 49.3998 212.677 53.3294C217.956 55.9452 223.131 68.8923 229.607 72.6059C232.225 74.099 237.008 72.7799 239.821 75.4753C243.467 78.9906 239.101 82.5155 240.585 85.7539C241.12 86.9032 254.126 105.148 255.198 106.27C256.78 107.887 259.34 108.422 261.414 109.117C257.878 118.023 266.448 127.44 267.537 134.219C268.308 138.966 266.324 144.831 269.209 150.342C269.877 151.646 271.801 151.504 272.762 152.919C278.373 161.013 270.779 162.169 270.484 163.971C271.054 169.015 271.41 174.089 272.008 179.141C273.107 188.424 272.059 181.922 270.593 186.665C269.61 189.777 267.133 201.332 266.444 205.085C266.155 206.653 267.854 208.273 267.318 210.096C266.892 211.626 250.013 232.834 247.6 235.372C244.691 238.419 230.673 248.914 230.158 249.919C229.339 251.487 230.084 254.844 229.194 256.774C226.127 258.276 222.949 255.303 220.387 255.621C217.701 255.963 211.826 259.833 208.342 260.925C202.18 262.862 192.656 263.864 187.806 265.635C186.589 266.092 186.391 270.51 182.073 270.899C170.77 265.166 158.455 267.099 146.425 263.666L143.069 265.147L141.622 269.925L136.677 270.345C132.237 268.522 131.102 263.497 132.29 259.118C126.005 258.637 121.865 251.393 116.086 256.821C109.726 256.083 111.041 251.562 108.983 248.165C108.04 246.578 99.7984 240.637 97.9718 240.217C96.0084 239.76 94.5611 241.683 92.6526 240.181C89.5841 237.768 89.0822 232.477 88.0665 231.047C87.3894 230.093 78.5092 220.413 77.829 220.106C77.2505 219.857 69.348 222.546 66.3466 217.561L68.3825 209.709C68.2232 208.694 61.4975 200.054 60.4346 199.641C59.6375 199.331 57.3673 200.083 55.1489 199.378C47.9273 197.076 49.199 191.867 54.4018 188.192C50.0675 181.012 47.3669 175.581 40.8777 170.009C42.7966 162.684 41.6453 153.799 39.5584 146.478C39.1304 144.947 32.6425 140.641 32.8026 136.359L39.3994 132.012L42.372 114.119C34.3612 109.36 44.2483 106.84 46.8467 104.59C50.367 101.566 57.9768 85.3151 62.4143 81.4274C77.7132 68.0208 91.4244 50.0522 106.547 39.1867C109.9 36.7635 118.055 33.3795 119.789 31.8014C121.051 30.6511 120.225 27.4782 122.37 26.0141C126.643 23.1404 128.414 27.783 130.536 27.9901C134.798 28.4393 153.363 25.4184 158.915 24.725C162.461 31.2444 180.777 31.4508 182.827 33.0803L182.889 33.0681Z" fill="#AF043C"/>
<path d="M62.103 155.513C61.3802 155.253 60.4693 154.294 60.1368 153.583C59.0135 151.269 58.2045 148.778 57.2208 146.385C56.6971 145.092 54.2422 141.848 56.8342 141.951C58.096 142.92 59.4487 144.091 60.7257 145.005C62.1514 146.019 64.2406 147.189 65.5038 148.364C68.9716 151.565 66.2877 157.089 62.103 155.513Z" fill="#EA3A3E"/>
<path d="M97.2617 207.084C96.5025 207.167 95.268 206.736 94.641 206.237C92.6034 204.67 90.7663 202.805 88.794 201.109C87.751 200.201 84.1023 198.392 86.4637 197.312C88.0322 197.601 89.7617 198.052 91.3105 198.306C93.0309 198.579 95.4164 198.683 97.0836 199.146C101.64 200.442 101.693 206.609 97.242 207.049L97.2617 207.084Z" fill="#EA3A3E"/>
<path d="M93.3353 120.281C92.9603 119.617 92.8496 118.321 93.0699 117.529C93.7065 115.027 94.6787 112.59 95.4246 110.119C95.8514 108.795 96.0403 104.727 97.97 106.47C98.3282 108.041 98.6058 109.796 99.0065 111.32C99.4436 113.031 100.301 115.242 100.532 116.954C101.146 121.628 95.5259 124.157 93.3429 120.254L93.3353 120.281Z" fill="#EA3A3E"/>
<path d="M122.289 187.493C121.844 186.869 121.582 185.589 121.712 184.801C122.068 182.251 122.74 179.73 123.212 177.183C123.475 175.813 123.216 171.768 125.331 173.268C125.856 174.768 126.348 176.494 126.908 177.975C127.539 179.622 128.634 181.722 129.051 183.398C130.191 187.982 124.906 191.105 122.281 187.52L122.289 187.493Z" fill="#EA3A3E"/>
<path d="M164.947 170.891C164.232 170.604 163.355 169.624 163.031 168.886C162.004 166.541 161.23 164.03 160.344 161.605C159.855 160.292 157.505 156.989 160.109 157.154C161.363 158.15 162.674 159.368 163.908 160.33C165.291 161.391 167.338 162.608 168.586 163.838C171.969 167.133 169.093 172.603 164.954 170.863L164.947 170.891Z" fill="#EA3A3E"/>
<path d="M97.5815 168.232C96.8663 167.945 95.9903 166.965 95.6654 166.228C94.6393 163.882 93.8652 161.371 92.9787 158.946C92.49 157.633 90.1398 154.331 92.744 154.496C93.9981 155.492 95.3084 156.71 96.5428 157.671C97.9259 158.732 99.9727 159.949 101.221 161.179C104.603 164.474 101.728 169.944 97.5891 168.205L97.5815 168.232Z" fill="#EA3A3E"/>
<path d="M135.94 141.781C135.185 141.954 133.913 141.659 133.228 141.263C131.032 139.946 128.955 138.309 126.825 136.863C125.689 136.076 121.829 134.709 124.06 133.357C125.647 133.474 127.41 133.7 129.012 133.762C130.758 133.836 133.138 133.644 134.85 133.943C139.524 134.713 140.301 140.816 135.94 141.781Z" fill="#EA3A3E"/>
<path d="M138.829 238.037C138.264 237.527 137.78 236.303 137.739 235.497C137.6 232.927 137.764 230.324 137.749 227.73C137.751 226.347 136.698 222.404 139.078 223.478C139.903 224.855 140.694 226.459 141.533 227.781C142.471 229.278 143.958 231.134 144.674 232.687C146.696 236.958 142.081 241.061 138.809 238.002L138.829 238.037Z" fill="#EA3A3E"/>
<path d="M154.22 201.315C153.452 201.22 152.348 200.53 151.841 199.918C150.186 197.928 148.791 195.744 147.248 193.667C146.41 192.551 143.235 189.991 145.796 189.466C147.273 190.083 148.869 190.909 150.334 191.464C151.975 192.126 154.279 192.737 155.793 193.541C159.939 195.783 158.674 201.818 154.255 201.296L154.22 201.315Z" fill="#EA3A3E"/>
<path d="M199.56 209.065C198.936 209.51 197.643 209.71 196.828 209.571C194.292 209.16 191.766 208.399 189.268 207.852C187.906 207.561 183.835 207.695 185.41 205.631C186.93 205.141 188.668 204.712 190.169 204.188C191.829 203.619 193.976 202.568 195.637 202.205C200.247 201.191 203.224 206.581 199.552 209.092L199.56 209.065Z" fill="#EA3A3E"/>
<path d="M174.683 248.446C173.922 248.323 172.853 247.614 172.361 246.947C170.811 244.897 169.466 242.64 168.028 240.503C167.233 239.34 164.178 236.666 166.743 236.231C168.197 236.93 169.758 237.776 171.201 238.413C172.8 239.122 175.073 239.842 176.571 240.701C180.637 243.126 179.126 249.093 174.698 248.392L174.683 248.446Z" fill="#EA3A3E"/>
<path d="M198.633 247.129C198.258 246.466 198.12 245.162 198.306 244.389C198.915 241.88 199.833 239.427 200.551 236.949C200.923 235.61 201.085 231.534 203.05 233.258C203.443 234.809 203.748 236.572 204.148 238.096C204.62 239.787 205.505 242.005 205.771 243.698C206.475 248.367 200.894 250.966 198.633 247.129Z" fill="#EA3A3E"/>
<path d="M170.958 58.5073C170.75 57.7725 169.874 56.7931 169.189 56.3967C166.959 55.0996 164.536 54.0727 162.24 52.9046C161.004 52.2666 157.957 49.5651 157.855 52.1563C158.714 53.5136 159.765 54.9242 160.596 56.274C161.507 57.7634 162.489 59.9497 163.555 61.3056C166.466 65.0287 172.209 62.7991 170.986 58.5149L170.958 58.5073Z" fill="#EA3A3E"/>
<path d="M215.845 79.1108C215.637 78.376 214.761 77.3966 214.076 77.0002C211.846 75.7031 209.422 74.6762 207.127 73.5081C205.891 72.8701 202.843 70.1686 202.741 72.7598C203.601 74.1172 204.651 75.5277 205.483 76.8775C206.394 78.367 207.376 80.5532 208.442 81.9091C211.352 85.6322 217.096 83.4026 215.872 79.1184L215.845 79.1108Z" fill="#EA3A3E"/>
<path d="M132.941 70.8081C132.733 70.0733 131.857 69.0939 131.172 68.6975C128.941 67.4004 126.518 66.3734 124.222 65.2053C122.986 64.5674 119.939 61.8659 119.837 64.4571C120.696 65.8144 121.747 67.225 122.579 68.5748C123.49 70.0642 124.472 72.2505 125.538 73.6064C128.448 77.3295 134.191 75.0999 132.968 70.8157L132.941 70.8081Z" fill="#EA3A3E"/>
<path d="M217.217 115.902C217.009 115.167 216.133 114.188 215.448 113.791C213.218 112.494 210.794 111.467 208.499 110.299C207.263 109.661 204.216 106.96 204.113 109.551C204.973 110.908 206.023 112.319 206.855 113.669C207.766 115.158 208.748 117.344 209.814 118.7C212.724 122.423 218.468 120.194 217.244 115.909L217.217 115.902Z" fill="#EA3A3E"/>
<path d="M181.935 128.108C181.727 127.374 180.851 126.394 180.166 125.998C177.936 124.701 175.512 123.674 173.216 122.506C171.981 121.868 168.933 119.166 168.831 121.757C169.69 123.115 170.741 124.525 171.573 125.875C172.484 127.365 173.466 129.551 174.532 130.907C177.442 134.63 183.185 132.4 181.962 128.116L181.935 128.108Z" fill="#EA3A3E"/>
<path d="M187.021 99.4404C186.813 98.7056 185.937 97.7262 185.252 97.3298C183.022 96.0327 180.598 95.0058 178.302 93.8377C177.066 93.1997 174.019 90.4982 173.917 93.0894C174.776 94.4468 175.827 95.8573 176.659 97.2071C177.57 98.6965 178.552 100.883 179.618 102.239C182.528 105.962 188.271 103.732 187.048 99.448L187.021 99.4404Z" fill="#EA3A3E"/>
<path d="M147.842 97.1728C147.634 96.438 146.758 95.4587 146.073 95.0622C143.843 93.7651 141.419 92.7382 139.124 91.5701C137.888 90.9321 134.841 88.2306 134.738 90.8218C135.598 92.1792 136.648 93.5897 137.48 94.9395C138.391 96.429 139.373 98.6152 140.439 99.9711C143.349 103.694 149.093 101.465 147.869 97.1804L147.842 97.1728Z" fill="#EA3A3E"/>
<path d="M242.362 120.243C242.155 119.508 241.279 118.529 240.594 118.133C238.363 116.835 235.94 115.808 233.644 114.64C232.408 114.002 229.361 111.301 229.259 113.892C230.118 115.249 231.169 116.66 232.001 118.01C232.912 119.499 233.894 121.686 234.96 123.041C237.87 126.765 243.613 124.535 242.39 120.251L242.362 120.243Z" fill="#EA3A3E"/>
<path d="M206.712 153.157C206.504 152.422 205.628 151.443 204.943 151.047C202.713 149.75 200.29 148.723 197.994 147.554C196.758 146.916 193.711 144.215 193.609 146.806C194.468 148.164 195.518 149.574 196.35 150.924C197.261 152.413 198.243 154.6 199.309 155.956C202.22 159.679 207.963 157.449 206.739 153.165L206.712 153.157Z" fill="#EA3A3E"/>
<path d="M221.413 181.086C221.205 180.351 220.329 179.372 219.645 178.975C217.414 177.678 214.991 176.651 212.695 175.483C211.459 174.845 208.412 172.144 208.31 174.735C209.169 176.092 210.22 177.503 211.052 178.853C211.962 180.342 212.945 182.528 214.01 183.884C216.921 187.607 222.664 185.378 221.441 181.093L221.413 181.086Z" fill="#EA3A3E"/>
<path d="M246.575 154.439C246.367 153.704 245.491 152.725 244.807 152.328C242.576 151.031 240.153 150.004 237.857 148.836C236.621 148.198 233.574 145.497 233.472 148.088C234.331 149.445 235.382 150.856 236.214 152.206C237.125 153.695 238.107 155.881 239.172 157.237C242.083 160.96 247.826 158.731 246.603 154.447L246.575 154.439Z" fill="#EA3A3E"/>
<path d="M247.785 208.757C247.577 208.023 246.701 207.043 246.017 206.647C243.786 205.35 241.363 204.323 239.067 203.155C237.831 202.517 234.784 199.815 234.682 202.406C235.541 203.764 236.592 205.174 237.424 206.524C238.334 208.013 239.317 210.2 240.382 211.556C243.293 215.279 249.036 213.049 247.813 208.765L247.785 208.757Z" fill="#EA3A3E"/>
</g>
</svg>
