<svg width="312" height="300" viewBox="0 0 312 300" fill="none" xmlns="http://www.w3.org/2000/svg">
<mask id="mask0_2313_3542" style="mask-type:alpha" maskUnits="userSpaceOnUse" x="0" y="0" width="312" height="300">
<rect width="312" height="300" fill="white"/>
</mask>
<g mask="url(#mask0_2313_3542)">
<path d="M113.585 132.97C116.36 135.569 129.125 146.523 129.417 149.327C126.321 156.747 119.661 146.377 116.623 143.836C113.177 140.944 106.838 137.117 102.661 135.336C95.7382 132.385 79.03 129.581 75.7877 138.841C72.6039 147.954 93.1969 150.7 99.0097 152.482C106.604 154.819 126.642 160.223 123.692 171.235C120.859 181.838 104.209 179.589 97.4615 185.635C89.8669 192.47 100.908 192.996 104.384 195.654C106.663 197.378 108.211 200.123 108.503 202.928C108.999 207.543 105.231 218 114.9 212.246C120.333 202.402 126.555 191.769 134.558 183.737C136.048 182.247 141.014 177.34 143.058 178.362C143.73 178.8 144.49 179.764 144.519 180.553C144.665 182.597 138.823 190.601 137.45 193.259C126.905 213.911 133.273 240.229 123.4 261.698C112.797 284.745 86.9752 297.217 67.2584 276.449C57.6776 266.342 61.1827 257.813 61.0659 246.304C60.8906 227.084 38.9832 233.247 35.624 213.122C31.2133 186.599 66.7911 174.798 86.7415 170.154C77.5988 164.692 66.2361 167.496 57.3855 172.082C49.6156 176.113 38.4574 187.125 29.6068 180.348C23.1222 175.412 28.0294 171.468 25.1084 166.444C21.6032 160.515 14.5052 160.953 9.33505 157.623C-1.20975 150.759 -3.57575 141.324 6.15117 132.356C11.7303 127.215 17.9228 129.961 24.0569 128.325C31.0673 126.485 31.6807 120.234 36.4127 115.531C47.2204 104.782 65.3598 103.906 78.9424 108.842C93.3721 114.1 102.602 122.717 113.527 132.94L113.585 132.97Z" fill="#9F1C20"/>
<path d="M262.031 206.403C259.869 214.641 252.888 221.096 251.077 228.954C249.178 237.074 254.378 244.61 253.852 252.701C252.596 272.535 226.687 281.765 209.891 276.186C200.456 273.061 197.944 266.138 186.815 269.877C176.825 273.236 169.494 281.619 157.751 278.523C135.873 272.768 133.887 243.383 135.814 224.981C137.246 211.428 140.722 196.735 150.127 186.365C151.296 185.664 152.581 186.804 153.165 187.767C153.487 188.293 153.019 197.494 153.311 199.744C154.246 207.017 157.897 218.555 164.732 222.235C173.758 227.055 173.232 200.795 184.77 210.726C189.911 215.137 193.241 222.557 200.836 224.543C211.293 227.289 211.351 213.618 205.685 207.426C202.676 204.125 195.841 200.883 196.075 196.151C196.045 191.331 201.683 191.156 203.523 187.388C197.973 178.157 185.617 180.494 177.38 176.259L176.416 174.506C174.897 169.336 186.202 166.736 189.882 166.006C213.016 161.391 270.823 173.046 262.06 206.374L262.031 206.403Z" fill="#9F1C20"/>
<path d="M306.43 140.156C304.589 142.434 301.756 143.807 299.857 145.881C293.402 152.891 302.34 164.78 296.527 173.66C289.02 185.081 271.553 183.679 260.278 180.027C241.554 173.952 227.68 163.027 206.035 166.094C199.609 167 196.717 170.563 190.904 171.644C182.842 164.867 196.6 159.084 202.267 157.068C209.073 154.644 215.733 154.147 222.86 153.797C226.424 153.621 246.783 155.52 240.97 146.29C235.216 137.118 219.53 146.845 214.798 137.556C213.191 134.401 216.434 123.886 207.32 129.377C201.332 132.999 192.89 146.085 188.713 152.307C187.399 154.293 182.813 163.115 181.937 163.728C181.353 164.137 180.389 164.079 179.688 163.991C178.607 163.348 179.337 161.041 179.542 160.077C182.316 147.604 192.92 130.487 200.719 120.381C211.468 106.447 238.75 75.8353 257.182 95.406C261.446 99.9628 260.073 108.288 266.237 110.04C269.391 110.946 279.673 104.49 283.938 103.614C304.765 99.2909 319.691 123.652 306.459 140.156H306.43Z" fill="#9F1C20"/>
<path d="M202.705 41.3087C209.336 48.8449 220.728 43.7624 223.736 57.0821C228.059 76.127 204.428 84.6563 193.708 95.2011C188.597 100.254 183.28 107.703 180.447 114.334C178.402 119.095 178.052 126.66 176.328 130.165C175.452 131.947 174.985 132.648 172.911 132.59C169.639 132.473 169.931 129.172 169.844 126.631C169.347 109.426 178.957 93.5654 178.11 75.9226C177.584 64.9396 172.999 62.077 165.784 71.95C156.787 84.2182 154.45 104.548 157.751 119.095C158.189 121.023 160.789 127.244 160.613 128.208C159.474 134.81 152.552 125.638 150.799 123.593C143.234 114.655 136.983 101.89 132.046 91.2578C125.474 77.1202 116.419 57.0237 127.577 42.7692C131.228 38.1249 138.56 34.386 144.49 35.0578C149.309 35.6128 153.837 39.7314 158.394 37.2486C167.244 32.4581 167.682 15.9837 179.191 12.5369C188.48 9.76198 195.198 18.2621 197.856 26.1196C199.375 30.6471 199.463 37.6575 202.647 41.2795L202.705 41.3087Z" fill="#9F1C20"/>
<path d="M58.4667 70.9278C58.9633 70.0222 59.9272 70.4896 60.6574 70.6064C73.0133 72.3006 99.3314 87.0224 109.438 94.7047C128.366 109.134 158.19 142.259 164.061 165.626C165.434 171.089 166.923 178.625 158.394 176.522L157.226 175.499C152.903 164.283 148.842 153.504 142.27 143.31C128.425 121.782 111.454 103.76 89.6045 90.2063C81.4257 85.153 72.1954 81.4141 64.1918 76.1563C62.9066 75.3093 57.6196 72.5343 58.4959 70.957L58.4667 70.9278Z" fill="#9F1C20"/>
<path d="M103.069 77.8499C103.449 77.178 103.858 76.5354 104.472 76.0389C111.277 72.0955 114.082 79.3104 109.466 84.3053C104.793 87.2263 100.411 82.4358 103.069 77.8499Z" fill="#9F1C20"/>
<path d="M51.1351 67.7147C51.1935 69.3797 49.0904 71.7457 47.3378 71.6873C43.0439 71.5997 37.8738 65.3779 43.19 62.048C45.9357 60.3246 51.0183 65.0274 51.1351 67.7147Z" fill="#9F1C20"/>
<path d="M55.8373 56.9359C56.6844 54.9496 58.6414 53.4015 60.7738 54.1317C63.1398 54.6867 64.0161 56.7898 64.6295 58.9514C64.8339 64.1507 59.0796 66.8965 56.4799 61.7555C56.217 61.2297 55.5744 57.5201 55.8081 56.9359H55.8373Z" fill="#9F1C20"/>
<path d="M48.6815 79.6029C49.587 78.2008 50.7262 77.3245 52.2743 76.7695L55.429 77.3537C57.9411 78.7558 58.0871 82.5531 55.9548 84.3641C51.8362 88.3659 45.1763 85.0652 48.6815 79.6029Z" fill="#9F1C20"/>
<path d="M70.3548 61.2008C74.1229 54.1028 81.4254 60.9087 77.5697 65.9913C74.0937 70.6064 67.7843 66.0205 70.3548 61.2008Z" fill="#9F1C20"/>
<path d="M63.3732 86.5257C66.7032 81.2679 72.8081 85.9707 71.1723 89.5343C67.7255 97.0705 59.5759 92.5137 63.3732 86.5257Z" fill="#9F1C20"/>
<path d="M95.5929 69.7588C95.5345 71.7451 93.1101 74.4324 91.1238 74.7245L87.9107 73.6729L86.4502 71.1025L87.5018 67.8894L90.8901 65.4941L94.1032 66.5457L95.5929 69.788V69.7588Z" fill="#9F1C20"/>
<path d="M76.0506 96.6905C78.6211 91.0238 86.1281 90.498 85.1934 97.3624C83.7913 99.6408 81.3961 100.663 78.8256 100.984C76.4304 101.423 75.2035 98.5016 76.0214 96.6905H76.0506Z" fill="#9F1C20"/>
<path d="M93.3138 101.686C95.6798 98.9107 101.025 101.101 99.8277 105.162L96.2933 108.988C93.4307 109.514 91.1523 107.937 91.7949 104.87C92.2915 103.935 92.6712 102.445 93.3138 101.686Z" fill="#9F1C20"/>
</g>
</svg>
