<svg width="312" height="300" viewBox="0 0 312 300" fill="none" xmlns="http://www.w3.org/2000/svg">
<mask id="mask0_2313_3545" style="mask-type:alpha" maskUnits="userSpaceOnUse" x="0" y="0" width="312" height="300">
<rect width="312" height="300" fill="white"/>
</mask>
<g mask="url(#mask0_2313_3545)">
<path d="M276.179 144.092C276.145 141.367 276.382 138.507 276.179 135.816L275.028 129.925C273.674 122.161 271.677 113.818 269.308 106.326C268.055 104.589 267.48 102.512 267.006 100.435C263.418 92.6704 259.051 85.1786 254.413 77.9933L247.542 68.5604C247.169 68.1517 246.763 67.7772 246.391 67.3685C244.868 64.3377 242.464 61.8518 239.519 60.2853C233.798 54.9048 227.502 49.5925 221.206 44.9271L206.346 36.6521C203.705 35.4602 200.963 34.2342 198.323 33.1105L191.451 30.7608C186.577 29.5689 181.466 28.2748 176.591 27.2192L170.87 26.0273C170.498 26.0273 170.092 26.0273 169.719 26.0273C160.309 24.8695 150.425 24.4608 141.116 26.0273C134.515 26.6062 126.052 29.1262 119.384 30.7608L110.244 34.3023C109.906 34.4045 109.432 34.2002 109.093 34.3023C105.911 36.4137 102.492 37.9801 98.8026 39.0358C98.3625 39.3082 98.0579 39.9893 97.6517 40.2277C95.4853 40.9428 93.4204 41.9985 91.931 43.7693C89.5276 45.3017 87.3611 46.9703 85.0593 48.5027C81.9112 51.6016 78.4923 54.4281 74.7687 56.7778C70.7405 60.4556 68.0663 63.3502 64.4782 67.4026L61.0593 72.136C60.6531 72.5106 60.2807 72.9193 59.9084 73.3279C59.1637 75.2009 58.0127 76.8014 56.4895 78.0614C52.9013 82.9311 51.0734 85.5872 48.4669 91.0358C46.3682 94.305 44.7434 97.8466 43.8971 101.661C38.1087 116.099 35.6376 125.737 34.8252 141.742C33.7081 147.19 33.7419 152.843 34.8252 158.258C34.8929 160.199 34.6898 162.208 34.8252 164.149L35.9761 170.04C37.6347 183.321 39.5642 192.72 46.2666 204.264L51.9874 214.889C52.7998 216.081 53.206 216.932 54.2892 218.431C58.419 225.037 62.9888 231.337 67.9986 237.331C71.2483 240.634 73.2455 242.881 77.1383 245.606L82.859 250.339C89.5276 255.311 93.2511 258.648 101.172 262.156L120.602 270.431C121.279 270.567 122.159 270.295 122.904 270.431L129.776 272.78C130.453 272.917 131.333 272.678 132.078 272.78L137.798 273.972C138.171 273.972 138.577 273.972 138.949 273.972L151.542 275.164C154.216 275.164 156.89 275.164 159.564 275.164L172.157 273.972C172.529 273.972 172.935 274.006 173.308 273.972L179.028 272.78C182.786 272.168 185.697 271.282 189.319 270.431L196.191 268.081C197.104 267.843 198.56 267.264 199.609 266.889C202.893 265.016 206.244 263.177 209.9 262.156C210.611 261.815 211.491 261.372 212.202 260.964C214.47 258.75 217.381 257.456 220.224 256.23C221.375 255.481 222.594 254.732 223.643 253.881C224.862 252.28 226.419 251.088 228.213 250.339C228.619 249.965 228.992 249.556 229.364 249.147L233.934 245.606C245.511 234.504 252.89 225.037 261.387 211.382L265.956 203.107C267.412 199.293 269.274 194.014 270.526 190.132L272.828 184.241C273.911 176.306 275.333 168.576 276.247 160.642C277.229 155.193 277.296 149.574 276.247 144.126L276.179 144.092Z" fill="#AF043C"/>
<path d="M260.472 152.06C254.717 142.695 245.611 141.572 245.611 141.572C230.48 138.371 196.934 145.215 183.056 148.314C181.803 148.587 180.618 147.735 180.382 146.441C180.314 145.965 180.212 145.522 180.111 145.045C179.806 143.751 180.72 142.457 182.006 142.287C194.903 140.618 230.988 135.34 244.731 126.69C244.731 126.69 252.923 122.467 255.327 111.672C256.782 105.747 256.004 99.3791 253.16 93.9645C253.16 93.9645 253.16 93.9305 253.126 93.8964C253.126 93.8964 253.126 93.8624 253.126 93.8283C250.181 88.4478 245.374 84.4295 239.721 82.5565C229.566 78.9128 221.747 83.8846 221.747 83.8846C207.09 91.5467 182.92 121.48 175.236 131.287C174.458 132.309 173.036 132.411 172.054 131.56C171.919 131.458 171.817 131.356 171.682 131.253C170.7 130.402 170.531 128.904 171.377 127.916C179.84 118.109 203.941 89.2651 208.816 73.2939C208.816 73.2939 212.269 64.5421 207.191 54.7687C204.483 49.3201 199.879 45.0634 194.26 42.918C194.26 42.918 194.226 42.918 194.193 42.918C194.193 42.918 194.159 42.918 194.125 42.918C188.472 40.8748 182.277 41.1472 176.861 43.565C166.909 47.7196 164.167 56.7779 164.167 56.7779C158.142 72.2042 158.886 109.936 159.36 123.285C159.394 124.613 158.345 125.703 157.092 125.634C156.788 125.634 156.517 125.634 156.212 125.634C156.043 125.634 155.874 125.634 155.671 125.634C154.384 125.669 153.335 124.579 153.403 123.251C153.944 109.8 154.791 72.2383 148.833 56.8119C148.833 56.8119 146.125 47.7536 136.207 43.531C130.791 41.0791 124.596 40.8067 118.943 42.8499C118.943 42.8499 118.909 42.8499 118.875 42.8499C118.875 42.8499 118.841 42.8499 118.807 42.8499C113.188 44.9953 108.551 49.2179 105.843 54.6665C100.697 64.4059 104.15 73.1918 104.15 73.1918C108.957 89.0608 132.686 117.734 141.25 127.78C142.097 128.767 141.927 130.3 140.912 131.117C140.878 131.117 140.844 131.185 140.81 131.219C139.862 132.037 138.441 131.9 137.662 130.913C129.504 120.595 105.91 91.6489 91.4901 84.1571C91.4901 84.1571 83.6706 79.2193 73.5155 82.863C67.8963 84.736 63.0895 88.7884 60.1445 94.1689C60.1445 94.1689 60.1445 94.2029 60.1445 94.237C60.1445 94.237 60.1445 94.271 60.1107 94.3051C57.2672 99.7537 56.5225 106.088 57.9781 112.013C60.3815 122.808 68.5733 127.031 68.5733 127.031C82.0458 135.408 116.844 140.584 130.452 142.355C131.772 142.525 132.618 143.853 132.314 145.181C132.212 145.692 132.111 146.203 132.009 146.714C131.806 148.008 130.621 148.893 129.403 148.621C116.912 146.067 80.6241 139.222 64.8159 142.968C64.8159 142.968 55.744 144.296 50.1925 153.797C47.0105 158.973 45.7919 165.239 46.8751 171.335V171.403V171.471C48.026 177.532 51.3772 182.913 56.1502 186.523C64.6805 193.265 73.617 191.12 73.617 191.12C89.4591 188.668 120.297 169.087 131.366 161.765C132.449 161.05 133.871 161.493 134.48 162.651C134.683 163.025 134.886 163.4 135.09 163.775C135.767 164.932 135.394 166.397 134.243 167.01C122.565 173.412 91.0162 191.426 81.1657 204.435C81.1657 204.435 74.971 211.382 76.4266 222.381C77.1036 228.443 80.0148 234.096 84.5507 238.148C84.5507 238.148 84.5846 238.182 84.6184 238.216C84.6184 238.216 84.6523 238.25 84.6861 238.284C89.2898 242.234 95.1798 244.21 101.104 243.903C111.834 243.562 117.453 236.105 117.453 236.105C128.218 223.948 140.099 188.906 144.297 175.864C144.703 174.604 146.057 173.991 147.242 174.468C148.156 174.842 149.104 175.149 150.085 175.421C151.439 175.796 152.184 177.26 151.642 178.554C146.396 191.052 132.517 225.514 132.686 242.03C132.686 242.03 132.043 251.463 139.829 259.125C144.026 263.416 149.713 266.004 155.704 266.242C155.704 266.242 155.738 266.242 155.772 266.242C155.772 266.242 155.806 266.242 155.84 266.242C161.831 266.344 167.62 264.131 172.054 260.079C180.246 252.927 180.145 243.46 180.145 243.46C181.262 226.229 168.195 188.498 164.201 177.362C163.761 176.17 164.37 174.91 165.487 174.433C165.589 174.399 165.69 174.365 165.792 174.297C167.011 173.786 168.398 174.399 168.805 175.693C172.664 188.361 184.274 224.322 195.005 236.786C195.005 236.786 200.523 244.38 211.253 244.857C217.177 245.265 223.067 243.324 227.738 239.442C227.738 239.442 227.772 239.442 227.806 239.408C227.806 239.408 227.84 239.408 227.874 239.374C232.477 235.39 235.422 229.771 236.201 223.709C237.826 212.744 231.733 205.695 231.733 205.695C221.815 192.21 189.149 173.139 178.317 167.044C177.2 166.397 176.861 164.967 177.504 163.809C177.572 163.707 177.64 163.57 177.707 163.468C178.35 162.344 179.704 161.936 180.788 162.617C192.872 170.143 222.627 187.851 237.995 189.86C237.995 189.86 246.965 191.835 255.327 184.888C260.032 181.176 263.248 175.693 264.297 169.598C264.297 169.598 264.297 169.564 264.297 169.53C264.297 169.53 264.297 169.496 264.297 169.462C265.211 163.332 263.857 157.1 260.573 152.026L260.472 152.06Z" fill="#F15F7B"/>
</g>
</svg>
