<svg width="110" height="113" viewBox="0 0 110 113" fill="none" xmlns="http://www.w3.org/2000/svg">
<path d="M107.357 55.0261C104.454 50.3654 99.8871 49.7952 99.8871 49.7952C92.2929 48.2085 75.4416 51.6049 68.4927 53.1668C67.8722 53.3155 67.2766 52.8693 67.1525 52.2247C67.1029 52.0016 67.0532 51.7537 67.0036 51.5306C66.8547 50.886 67.3014 50.2414 67.9467 50.167C74.4241 49.3489 92.5411 46.6963 99.4404 42.4074C99.4404 42.4074 103.56 40.3002 104.751 34.9205C105.471 31.9703 105.099 28.7971 103.659 26.0948C103.659 26.0948 103.659 26.0948 103.659 26.07C103.659 26.07 103.659 26.07 103.659 26.0453C102.17 23.3678 99.763 21.3597 96.9338 20.4177C91.8462 18.6079 87.925 21.0622 87.925 21.0622C80.5541 24.8801 68.443 39.8043 64.5715 44.6882C64.1744 45.184 63.4547 45.2336 62.9831 44.837C62.9335 44.7874 62.859 44.7378 62.8094 44.6882C62.3131 44.2668 62.2386 43.523 62.6605 43.0272C66.9292 38.1185 79.0154 23.7645 81.4724 15.8065C81.4724 15.8065 83.2096 11.4433 80.6534 6.58421C79.2884 3.88198 76.9803 1.74994 74.1511 0.683919C74.1511 0.683919 74.1511 0.683919 74.1263 0.683919C74.1263 0.683919 74.1263 0.683919 74.1015 0.683919C71.2723 -0.332517 68.1452 -0.208562 65.4153 1.0062C60.4269 3.08866 59.0371 7.60065 59.0371 7.60065C56.0094 15.2859 56.3816 34.1024 56.6298 40.7712C56.6298 41.4406 56.1334 41.986 55.4882 41.9612C55.3393 41.9612 55.1904 41.9612 55.0415 41.9612C54.9422 41.9612 54.8677 41.9612 54.7685 41.9612C54.1232 41.9612 53.602 41.4406 53.6269 40.7712C53.8999 34.0528 54.3218 15.3355 51.3188 7.65023C51.3188 7.65023 49.9538 3.13824 44.9655 1.031C42.2355 -0.18377 39.1333 -0.332517 36.2793 0.683919C36.2793 0.683919 36.2793 0.683919 36.2545 0.683919C36.2545 0.683919 36.2544 0.683919 36.2296 0.683919C33.4004 1.74994 31.0924 3.85719 29.7274 6.58421C27.1463 11.4433 28.8836 15.8065 28.8836 15.8065C31.2909 23.7149 43.2034 38.0194 47.5217 43.0024C47.9436 43.4982 47.8691 44.2667 47.348 44.6634C47.348 44.6634 47.2983 44.6882 47.2983 44.713C46.802 45.1096 46.1071 45.0601 45.71 44.5642C41.6151 39.4077 29.777 25.004 22.5303 21.2606C22.5303 21.2606 18.609 18.8062 13.5214 20.616C10.6922 21.5581 8.28487 23.5661 6.79581 26.2436C6.79581 26.2436 6.79581 26.2436 6.79581 26.2684C6.79581 26.2684 6.79581 26.2684 6.79581 26.2932C5.35638 29.0202 4.98411 32.1687 5.72864 35.1188C6.94471 40.4985 11.0645 42.6057 11.0645 42.6057C17.8149 46.7954 35.2865 49.3737 42.1362 50.2414C42.8063 50.3158 43.2282 50.9852 43.0793 51.6545C43.0297 51.9024 42.98 52.1751 42.9304 52.423C42.8311 53.0676 42.2355 53.5138 41.6151 53.3899C35.3362 52.1008 17.12 48.7044 9.20313 50.5637C9.20313 50.5637 4.63667 51.2331 1.85709 55.9682C0.268751 58.5465 -0.351687 61.6701 0.194302 64.6947C0.194302 64.6947 0.194302 64.7194 0.194302 64.7442C0.194302 64.7442 0.194302 64.769 0.194302 64.7938C0.789928 67.8183 2.45271 70.4958 4.86003 72.3055C9.12868 75.6771 13.6207 74.5863 13.6207 74.5863C21.5624 73.3716 37.0486 63.6038 42.6078 59.9595C43.1538 59.6125 43.8735 59.8108 44.1713 60.4058C44.2706 60.6041 44.3698 60.7777 44.4691 60.9512C44.7917 61.5214 44.618 62.2651 44.0472 62.5626C38.1902 65.7607 22.3317 74.7351 17.393 81.2303C17.393 81.2303 14.2659 84.7011 15.0105 90.1799C15.3579 93.2045 16.7974 96.0307 19.0806 98.0387C19.0806 98.0387 19.0806 98.0387 19.1054 98.0635C19.1054 98.0635 19.1054 98.0635 19.1302 98.0883C21.4383 100.047 24.3916 101.038 27.3697 100.89C32.7551 100.716 35.5844 96.9975 35.5844 96.9975C40.9946 90.9237 46.9509 73.4707 49.0604 66.9754C49.2589 66.3557 49.929 66.0334 50.5495 66.2813C51.021 66.4796 51.4925 66.6284 51.9889 66.7523C52.659 66.9259 53.0312 67.6696 52.7582 68.3142C50.1276 74.5367 43.1538 91.717 43.253 99.9477C43.253 99.9477 42.9304 104.658 46.8268 108.476C48.9363 110.633 51.7903 111.897 54.7933 112.021C54.7933 112.021 54.8181 112.021 54.8429 112.021C54.8429 112.021 54.8677 112.021 54.8926 112.021C57.8955 112.071 60.824 110.98 63.0328 108.947C67.1525 105.377 67.0781 100.667 67.0781 100.667C67.6489 92.0641 61.0722 73.2476 59.0619 67.7192C58.8386 67.1242 59.1364 66.4796 59.7072 66.2565C59.7568 66.2565 59.8065 66.2069 59.8561 66.1821C60.4766 65.9094 61.1714 66.2317 61.37 66.8763C63.3058 73.198 69.1379 91.122 74.5234 97.3198C74.5234 97.3198 77.303 101.088 82.6884 101.336C85.6665 101.534 88.6199 100.592 90.9527 98.6337C90.9527 98.6337 90.9527 98.6337 90.9775 98.6337C90.9775 98.6337 90.9775 98.6337 91.0023 98.6337C93.3104 96.6504 94.7995 93.849 95.1717 90.8245C95.9907 85.3705 92.9133 81.8501 92.9133 81.8501C87.9498 75.1317 71.5453 65.6119 66.1102 62.5874C65.5394 62.2651 65.3656 61.5462 65.7131 60.976C65.7379 60.9264 65.7875 60.852 65.8124 60.8024C66.135 60.2322 66.8299 60.0339 67.3511 60.381C73.4066 64.1245 88.3468 72.9749 96.09 73.9665C96.09 73.9665 100.607 74.9334 104.801 71.4874C107.159 69.6281 108.772 66.9011 109.293 63.8765C109.293 63.8765 109.293 63.8518 109.293 63.827C109.293 63.827 109.293 63.8022 109.293 63.7774C109.765 60.7281 109.07 57.6292 107.432 55.0757L107.357 55.0261Z" fill="#ED543E"/>
</svg>
